<svg version="1.1" id="Layer_1" xmlns="http://www.w3.org/2000/svg" xmlns:xlink="http://www.w3.org/1999/xlink" x="0px"
	y="0px" width="300px" height="300px" viewBox="0 0 300 300" enable-background="new 0 0 300 300" xml:space="preserve">
	<g>

		<circle fill="none" stroke="#325FAC" stroke-width="6" stroke-linecap="round"
		stroke-linejoin="round" stroke-dasharray="30.604,20.4027" cx="150" cy="150" r="138">

		<animateTransform attributeName = "transform"
		attributeType = "XML"
		type = "rotate"
		from = "0 150 150"
		to = "360 150 150"
		dur = "10s"
		repeatCount = "indefinite" />

		</circle>
	</g>
	<circle fill="#325FAC" cx="150" cy="150" r="122" />
	<g>
		<path fill="#FFFFFF" d="M91,197c0,4.694-3.806,8.5-8.5,8.5l0,0c-4.694,0-8.5-3.806-8.5-8.5v-94c0-4.694,3.806-8.5,8.5-8.5l0,0
		c4.694,0,8.5,3.806,8.5,8.5V197z">

		<animateTransform
		id = "ani"
		attributeName = "transform"
		attributeType = "XML"
		type = "translate"
		dur = "1s"
		values = "0,15; 0,-15; 0,15"
		repeatCount = "indefinite" />


		</path>
		<path fill="#FFFFFF" d="M118,197c0,4.694-3.806,8.5-8.5,8.5l0,0c-4.694,0-8.5-3.806-8.5-8.5v-94c0-4.694,3.806-8.5,8.5-8.5l0,0
		c4.694,0,8.5,3.806,8.5,8.5V197z">

		
		<animateTransform
		id = "ani"
		attributeName = "transform"
		attributeType = "XML"
		type = "translate"
		dur = "1s"
		values = "0,15; 0,-15; 0,15"
		repeatCount = "indefinite" />

		</path>
		<path fill="#FFFFFF" d="M145,197c0,4.694-3.806,8.5-8.5,8.5l0,0c-4.694,0-8.5-3.806-8.5-8.5v-94c0-4.694,3.806-8.5,8.5-8.5l0,0
		c4.694,0,8.5,3.806,8.5,8.5V197z">

		
		<animateTransform
		id = "ani"
		attributeName = "transform"
		attributeType = "XML"
		type = "translate"
		dur = "2s"
		values = "0,15; 0,-15; 0,15"
		repeatCount = "indefinite" />

		</path>
		<path fill="#FFFFFF" d="M172,197c0,4.694-3.806,8.5-8.5,8.5l0,0c-4.694,0-8.5-3.806-8.5-8.5v-94c0-4.694,3.806-8.5,8.5-8.5l0,0
		c4.694,0,8.5,3.806,8.5,8.5V197z">

		
		<animateTransform
		id = "ani"
		attributeName = "transform"
		attributeType = "XML"
		type = "translate"
		dur = "3s"
		values = "0,15; 0,-15; 0,15"
		repeatCount = "indefinite" />

		</path>
		<path fill="#FFFFFF" d="M199,197c0,4.694-3.806,8.5-8.5,8.5l0,0c-4.694,0-8.5-3.806-8.5-8.5v-94c0-4.694,3.806-8.5,8.5-8.5l0,0
		c4.694,0,8.5,3.806,8.5,8.5V197z">

		
		<animateTransform
		id = "ani"
		attributeName = "transform"
		attributeType = "XML"
		type = "translate"
		dur = "4s"
		values = "0,15; 0,-15; 0,15"
		repeatCount = "indefinite" />

		</path>
		<path fill="#FFFFFF" d="M226,197c0,4.694-3.806,8.5-8.5,8.5l0,0c-4.694,0-8.5-3.806-8.5-8.5v-94c0-4.694,3.806-8.5,8.5-8.5l0,0
		c4.694,0,8.5,3.806,8.5,8.5V197z">

		
		<animateTransform
		id = "ani"
		attributeName = "transform"
		attributeType = "XML"
		type = "translate"
		dur = "5s"
		values = "0,15; 0,-15; 0,15"
		repeatCount = "indefinite" />

		</path>
	</g>
</svg>